<?xml version="1.0" encoding="UTF-8" standalone="no"?>
<!-- Created with Inkscape (http://www.inkscape.org/) -->

<svg
   width="190.31479mm"
   height="125.974mm"
   viewBox="0 0 190.31479 125.974"
   version="1.1"
   id="svg1"
   xml:space="preserve"
   inkscape:version="1.3.2 (091e20e, 2023-11-25, custom)"
   sodipodi:docname="nhcp-tree.svg"
   xmlns:inkscape="http://www.inkscape.org/namespaces/inkscape"
   xmlns:sodipodi="http://sodipodi.sourceforge.net/DTD/sodipodi-0.dtd"
   xmlns="http://www.w3.org/2000/svg"
   xmlns:svg="http://www.w3.org/2000/svg"><sodipodi:namedview
     id="namedview1"
     pagecolor="#ffffff"
     bordercolor="#000000"
     borderopacity="0.25"
     inkscape:showpageshadow="2"
     inkscape:pageopacity="0.0"
     inkscape:pagecheckerboard="0"
     inkscape:deskcolor="#d1d1d1"
     inkscape:document-units="mm"
     inkscape:zoom="0.48106061"
     inkscape:cx="389.76378"
     inkscape:cy="550.86614"
     inkscape:window-width="1280"
     inkscape:window-height="778"
     inkscape:window-x="-6"
     inkscape:window-y="-6"
     inkscape:window-maximized="1"
     inkscape:current-layer="layer1" /><defs
     id="defs1" /><g
     inkscape:label="Layer 1"
     inkscape:groupmode="layer"
     id="layer1"
     transform="translate(-1.581247,-2.5544069)"><path
       style="fill:#000000"
       d="m 70.935157,128.03283 c 0.327422,-0.27198 0.773906,-0.5503 0.992187,-0.61847 0.488395,-0.15255 2.322779,-1.4545 2.539451,-1.80237 0.08701,-0.1397 0.704902,-0.52524 1.373093,-0.85677 2.912485,-1.44503 4.802807,-3.25938 5.989714,-5.74897 0.590438,-1.23848 0.614848,-1.39258 0.612798,-3.86953 -0.002,-2.48689 -0.0278,-2.64566 -0.715937,-4.41364 -0.392594,-1.00867 -1.150659,-2.56282 -1.684588,-3.45367 -1.12804,-1.88211 -1.820716,-2.40839 -4.289165,-3.2588 -1.387654,-0.47806 -1.981293,-0.56961 -3.825366,-0.58995 -2.657036,-0.0293 -3.339941,-0.31838 -5.239623,-2.21807 -1.161824,-1.16182 -1.321617,-1.259 -1.749531,-1.06403 -0.259009,0.11801 -0.797914,0.21456 -1.197565,0.21456 -0.399652,0 -1.45582,0.31319 -2.34704,0.69598 -0.89122,0.38279 -3.668668,1.22702 -6.172106,1.87608 -4.98991,1.29372 -7.149389,2.10478 -8.930396,3.35408 -0.643523,0.45141 -1.244893,0.82074 -1.336378,0.82074 -0.96593,0 3.336927,-8.78282 5.851683,-11.94422 0.644754,-0.81055 0.696281,-0.95422 0.342234,-0.95422 -0.132243,0 -0.700011,0.49381 -1.261707,1.09736 l -1.021265,1.09736 -3.451184,0.0562 c -3.190066,0.052 -8.329909,0.61306 -8.301602,0.90624 0.0062,0.0644 0.4527,0.45326 0.992188,0.8642 0.789591,0.60144 0.980886,0.86267 0.980886,1.33945 0,0.32576 -0.0373,0.5923 -0.0829,0.5923 -0.0456,0 -1.407373,-0.39582 -3.026172,-0.87959 -6.145407,-1.83653 -9.104896,-2.44654 -10.892166,-2.24509 -1.090848,0.12295 -1.476885,0.42723 -1.476885,1.16411 0,0.47596 -0.26052,0.77616 -1.571839,1.81125 -0.864511,0.6824 -1.841783,1.39909 -2.171715,1.59265 l -0.599876,0.35193 -0.527069,-0.89938 -0.52707,-0.89937 -1.11832,1.02208 c -1.720082,1.57206 -2.450815,1.99104 -3.472493,1.99104 -0.489486,0 -1.070755,-0.0968 -1.29171,-0.215 -0.275325,-0.14735 -0.565989,-0.15255 -0.92374,-0.0165 -0.744581,0.28309 -0.869406,0.25016 -0.752103,-0.19841 0.07414,-0.28351 0.0061,-0.39687 -0.238245,-0.39687 -0.254424,0 -0.301036,-0.089 -0.181981,-0.34727 0.08803,-0.19099 0.132197,-1.73136 0.09815,-3.42304 C 10.260424,95.11976 10.130426,94.7355 8.823657,94.1154 L 8.120751,93.78185 8.472483,93.18483 c 0.658659,-1.11797 3.107884,-4.03826 5.140304,-6.12895 1.666238,-1.71401 1.992995,-2.14706 1.834174,-2.43086 -0.236168,-0.42201 -0.53519,-0.43869 -0.960722,-0.0536 -0.29233,0.26456 -0.31513,0.22987 -0.244817,-0.37241 0.06089,-0.52159 -0.02118,-0.73329 -0.382348,-0.98626 -0.698368,-0.48916 -1.368811,-0.39141 -2.554389,0.37242 -1.095982,0.7061 -2.404733,0.93971 -2.688872,0.47996 -0.169138,-0.27367 0.729613,-1.2171 1.612316,-1.69246 0.512417,-0.27596 0.679681,-0.49621 0.679681,-0.89499 0,-0.29093 -0.131527,-0.57943 -0.292283,-0.64112 -0.540944,-0.20758 -1.440288,0.82408 -2.09613,2.40451 -1.758872,4.23849 -2.558748,5.14642 -4.380613,4.97239 -0.63814,-0.061 -0.669174,-0.0996 -0.609412,-0.75876 0.09884,-1.09022 0.811095,-4.53361 1.229454,-5.9438 0.415842,-1.4017 0.367206,-1.73884 -0.142753,-0.98954 -0.741891,1.09008 -1.992801,2.17084 -2.512622,2.17084 -0.459072,0 -0.522204,-0.0796 -0.522204,-0.65852 0,-0.76978 0.40621,-2.21921 1.205774,-4.30242 l 0.571222,-1.48828 2.699512,-0.96425 2.699511,-0.96424 0.536748,0.51423 c 0.295211,0.28283 0.802404,0.56737 1.127096,0.63231 1.36584,0.27317 4.665309,-0.93653 8.429196,-3.09044 l 1.752986,-1.00316 -0.474469,-1.07286 c -1.228751,-2.77842 -3.528271,-7.06972 -4.355963,-8.12897 -0.296548,-0.37951 -0.305095,-0.37958 -0.579453,-0.004 -0.273465,0.37399 -0.303747,0.37268 -1.686718,-0.0727 -0.819649,-0.26398 -1.408254,-0.56476 -1.408254,-0.71962 0,-0.50078 1.128117,-2.41087 2.437204,-4.12658 1.48923,-1.95182 2.025531,-3.34459 1.566337,-4.06778 -0.125562,-0.19775 -0.603114,-0.18939 -2.350965,0.0411 -2.502991,0.33012 -3.382839,0.19579 -4.019585,-0.6137 -0.220377,-0.28016 -0.457053,-0.80985 -0.525947,-1.17709 -0.21937,-1.16934 1.58417,-3.94428 5.609637,-8.63104 3.218772,-3.74754 4.75515,-5.61815 5.001467,-6.08951 0.128323,-0.24557 0.354295,-0.44649 0.50216,-0.44649 0.147864,0 0.799735,-0.39082 1.448601,-0.86848 2.061385,-1.51751 2.544225,-1.66451 2.334761,-0.71083 -0.12778,0.58178 -0.112277,0.59864 0.430717,0.46825 1.03789,-0.24923 1.616811,-0.66102 2.779348,-1.97699 0.980251,-1.10963 1.232384,-1.29233 1.664214,-1.20597 0.458613,0.0917 0.531171,0.0187 0.733821,-0.73903 0.345816,-1.29297 1.684011,-3.12398 3.583338,-4.902972 1.786421,-1.673239 5.285974,-4.153037 5.860869,-4.153037 0.180619,0 0.328397,-0.07687 0.328397,-0.170823 0,-0.216111 2.713583,-1.456701 4.206638,-1.923183 l 1.130857,-0.353318 -0.485935,-0.577501 c -1.011581,-1.202196 -0.384722,-1.263103 1.545625,-0.150175 0.757207,0.436562 1.525166,0.793634 1.706575,0.793493 0.181409,-1.41e-4 1.222803,-0.218037 2.314209,-0.484212 2.374787,-0.57917 5.237495,-1.519755 14.428797,-4.740793 3.249555,-1.138788 6.845991,-2.234489 8.53048,-2.598921 0.486454,-0.105243 0.574221,-0.02916 0.952271,0.825484 0.855407,1.933789 2.115872,2.721105 4.365795,2.72698 0.818555,0.0021 1.934766,-0.121632 2.480469,-0.275042 1.16817,-0.3284 3.1096,-1.26156 3.40829,-1.638218 0.35084,-0.442409 0.42826,-1.334423 0.13682,-1.576297 -0.56205,-0.466459 -1.86824,0.979133 -1.57506,1.743152 0.14217,0.370503 -0.68087,0.340109 -1.231365,-0.04547 -0.56424,-0.395209 -0.554931,-0.658489 0.05506,-1.557369 0.286173,-0.4217 0.496095,-1.013731 0.496095,-1.399114 0,-2.261207 4.18588,-2.303927 7.85507,-0.08017 1.30823,0.792869 1.37873,1.240463 0.37929,2.408075 -0.67532,0.788961 -1.18214,2.017913 -0.97224,2.357531 0.1834,0.296744 1.94382,0.177525 2.65975,-0.180124 0.84876,-0.424003 0.99329,-1.070984 0.41422,-1.854221 -0.22782,-0.308143 -0.41422,-0.608523 -0.41422,-0.667513 0,-0.239336 1.01548,-0.08317 1.88622,0.290077 1.69964,0.728548 3.30348,0.700747 4.36529,-0.07567 0.41778,-0.305488 0.32584,-0.630344 -0.47798,-1.68892 l -0.36015,-0.474289 -1.46645,0.345841 c -2.96637,0.699574 -3.7563,0.849717 -3.82811,0.727613 -0.0404,-0.06868 -0.13668,-0.593684 -0.21397,-1.166673 -0.13895,-1.030123 -0.13463,-1.041797 0.38554,-1.041797 0.86223,0 2.2893,-0.426068 2.2893,-0.683498 0,-0.659288 -1.81326,-1.625878 -2.62475,-1.399166 -0.19349,0.05406 -0.53041,0.148955 -0.74869,0.210881 -0.59701,0.169367 -0.50023,-0.377933 0.20982,-1.18664 0.46743,-0.532378 0.82044,-0.723596 1.53789,-0.833062 L 93.75546,5.634001 92.98067,5.289319 C 92.09069,4.893392 91.96555,4.715902 91.77934,3.585435 l -0.13566,-0.823536 0.8059,-0.136156 c 2.44707,-0.41343 9.71827,1.023113 14.8775,2.939289 l 1.26849,0.471128 0.89066,-0.497797 c 1.04698,-0.585167 2.87226,-0.756095 5.22516,-0.489306 1.60382,0.181854 2.45285,0.05987 2.82583,-0.406012 0.16426,-0.205167 0.87556,-0.320087 2.51121,-0.40572 1.25511,-0.06571 2.74406,-0.177229 3.30876,-0.247817 l 1.02673,-0.128343 -0.15253,0.670778 c -0.0839,0.368928 -0.33292,1.027965 -0.5534,1.464528 -0.53278,1.054986 -0.81821,2.001403 -0.91263,3.026172 -0.0749,0.812333 -0.057,0.843359 0.48546,0.843359 1.78699,0 7.85331,2.725109 12.57293,5.648006 5.47563,3.391094 7.47833,4.935126 7.80188,6.015048 0.39489,1.318012 1.74635,3.160852 4.23067,5.76891 1.31553,1.38105 2.51476,2.6499 2.66495,2.81966 0.58018,0.65573 5.99408,2.56869 7.26972,2.56869 0.72664,0 0.70355,0.22408 -0.0702,0.68114 -0.60752,0.35887 -0.63401,0.35902 -0.89297,0.005 -0.14679,-0.20074 -0.26688,-0.28271 -0.26688,-0.18215 0,0.10055 0.77948,0.96594 1.73219,1.92308 1.27433,1.28027 1.62838,1.73995 1.33945,1.73909 -0.42804,-0.001 -3.75672,-0.49331 -4.83066,-0.71405 -0.6316,-0.12982 -0.65559,-0.11478 -0.44489,0.27893 0.1225,0.22888 0.84708,1.08952 1.61019,1.91254 0.76311,0.82301 1.38747,1.589374 1.38747,1.703014 0,0.45184 -0.75487,0.43324 -3.05383,-0.0752 -2.89954,-0.641324 -3.60339,-0.665784 -3.8874,-0.13509 -0.18434,0.34443 0.0605,0.61071 2.12622,2.31269 2.94678,2.42787 3.91008,3.33795 4.63439,4.37835 0.58958,0.84687 0.81345,1.56942 0.33937,1.09534 -0.3589,-0.3589 -0.5976,-0.28611 -0.46207,0.1409 0.10846,0.34175 0.0366,0.36976 -0.73077,0.28482 -2.16797,-0.23997 -2.99617,-0.59402 -6.40732,-2.73915 -0.32742,-0.2059 0.0744,0.23318 0.89297,0.97574 5.45024,4.94422 10.37251,10.71389 11.60351,13.60113 0.2094,0.49113 0.40018,0.92252 0.42396,0.95865 0.0238,0.0361 0.22812,-0.0333 0.45411,-0.15421 0.37802,-0.20231 0.40159,-0.34247 0.29471,-1.75241 -0.19443,-2.56473 -0.68555,-3.8055 -1.39807,-3.53208 -0.8046,0.30875 -0.87198,-3.22956 -0.0868,-4.56026 0.34701,-0.58813 0.38483,-0.77877 0.17988,-0.90658 -0.43649,-0.2722 -1.92795,-0.42832 -2.86492,-0.29989 -1.05706,0.14488 -1.00261,-0.15903 0.0825,-0.4604 2.74958,-0.76364 10.79948,0.98179 15.52153,3.36548 1.43227,0.723 2.9756,2.07384 2.9756,2.60447 0,0.33155 -0.16753,0.3716 -1.55433,0.3716 h -1.55433 l 1.05779,3.12539 c 1.10385,3.26151 1.22266,3.82113 0.81063,3.8181 -0.13642,-10e-4 -1.23031,-0.40675 -2.43086,-0.90165 -2.27195,-0.93659 -4.29134,-1.29933 -5.22839,-0.93919 -0.43343,0.16659 -0.27709,0.336 2.2429,2.43055 2.97011,2.46868 4.89008,4.43914 5.51346,5.65846 0.22194,0.43412 0.63176,1.13419 0.91071,1.55571 0.98964,1.49544 0.47497,3.66138 -1.04094,4.38072 -0.43538,0.20661 -1.20707,0.31879 -2.19292,0.31879 -1.32515,0 -1.6067,0.0653 -2.18519,0.50649 -0.36523,0.27858 -0.71517,0.63971 -0.77765,0.80251 -0.0705,0.18386 0.43114,0.95059 1.32406,2.02358 0.7907,0.95017 1.74143,2.15071 2.11273,2.66788 0.89276,1.24348 1.20639,1.0185 1.20639,-0.86539 0,-0.75062 0.0223,-1.36361 0.0496,-1.3622 0.0273,10e-4 0.63004,0.18497 1.33945,0.40792 1.65661,0.52064 3.87121,0.53217 5.34638,0.0279 l 1.07998,-0.36921 0.75557,1.13147 c 0.52799,0.79067 0.75557,1.34809 0.75557,1.8506 0,0.39552 -0.0292,0.71912 -0.065,0.71912 -0.0357,0 -0.6144,-0.22324 -1.2859,-0.49609 -1.16034,-0.47149 -3.346,-0.69397 -3.66673,-0.37324 -0.0676,0.0676 0.60959,0.70966 1.50481,1.42688 3.4059,2.72868 5.93994,5.77875 6.22948,7.49806 0.12372,0.73465 -0.31115,1.6623 -1.05273,2.24562 -0.42307,0.33279 -0.80722,0.41439 -1.95067,0.41439 -1.32649,0 -1.46713,0.0423 -2.05683,0.61886 -0.34814,0.34038 -0.63332,0.71989 -0.63372,0.84336 -4.1e-4,0.12348 -0.40757,0.39182 -0.90479,0.59631 -0.70353,0.28935 -0.87161,0.44338 -0.75783,0.69453 0.0804,0.1775 0.1527,0.63526 0.16064,1.01726 l 0.0144,0.69453 -1.09141,0.0564 c -0.76257,0.0394 -1.52655,-0.0921 -2.53565,-0.43656 -1.68641,-0.57566 -1.75463,-0.34707 -0.0899,0.30115 0.91945,0.35801 1.59515,0.45078 3.52837,0.48444 2.51004,0.0437 3.29479,0.15289 4.48265,0.62368 0.52952,0.20987 0.69777,0.37976 0.63058,0.63671 -0.0814,0.31118 0.31333,1.30877 0.99499,2.51472 0.12754,0.22565 0.99092,1.07924 1.91862,1.89688 0.96527,0.85075 1.96539,1.94841 2.33826,2.56629 l 0.65154,1.07969 -0.55232,0.23909 c -0.83038,0.35947 -1.52952,0.30473 -2.1288,-0.16666 -0.50303,-0.39568 -0.56047,-0.40178 -0.86984,-0.0924 -0.30937,0.30937 -0.30846,0.37096 0.0138,0.93252 0.34317,0.59793 0.34262,0.60051 -0.0995,0.46341 -0.24453,-0.0758 -0.9555,-0.39411 -1.57994,-0.7073 -0.62445,-0.31319 -1.26871,-0.56944 -1.43169,-0.56944 -0.36961,0 -0.70718,0.60705 -0.70718,1.27171 0,0.35614 -0.16982,0.59186 -0.57878,0.80334 -0.6906,0.35712 -0.90276,1.0941 -0.64511,2.24084 l 0.1821,0.81049 -0.65052,-0.10557 c -0.51222,-0.0831 -0.69537,-0.0218 -0.86148,0.28863 -0.20448,0.38208 -0.30558,0.36165 -3.29179,-0.665 l -3.08083,-1.05918 -0.30439,0.58862 c -0.23514,0.45472 -0.44024,0.58862 -0.90159,0.58862 -0.98447,0 -1.48911,-0.50235 -2.17606,-2.16618 -0.58572,-1.41867 -0.71493,-1.58559 -1.51068,-1.95167 -0.4786,-0.22018 -0.90358,-0.34368 -0.9444,-0.27444 -0.28527,0.4838 -0.94469,3.83972 -0.95245,4.84725 -0.0172,2.23771 0.62636,2.9706 2.63265,2.99786 1.2743,0.0173 1.49343,0.20447 0.63138,0.53924 -0.69653,0.2705 -2.04659,0.13442 -7.37469,-0.74333 -2.63201,-0.43359 -4.71395,-0.67525 -5.47014,-0.63492 -1.15892,0.0618 -1.21667,0.0434 -1.13853,-0.36291 0.0775,-0.40269 -0.65273,-1.65558 -0.96487,-1.65558 -0.0768,0 -0.20004,0.24556 -0.27391,0.5457 -0.24332,0.98866 -1.08001,2.18522 -2.19272,3.13583 l -1.09589,0.93625 -1.31842,-0.43281 c -1.63048,-0.53525 -5.38791,-1.04812 -6.60209,-0.90116 -1.16237,0.14069 -3.33657,0.77966 -4.69078,1.37855 l -1.06202,0.46968 -0.97507,-1.22657 c -0.53629,-0.67461 -1.26294,-1.7177 -1.61477,-2.31797 -0.35183,-0.60028 -0.66889,-1.12263 -0.70456,-1.1608 -0.0357,-0.0382 -0.38685,0.0369 -0.78038,0.16676 -0.46538,0.15359 -0.79953,0.16918 -0.95587,0.0446 -0.16346,-0.13025 -1.25624,0.18595 -3.41537,0.98827 -6.88967,2.56015 -13.32424,4.24512 -15.60209,4.08559 -0.97667,-0.0684 -1.23532,-0.18306 -2.06961,-0.91744 -3.40353,-2.9959 -9.3735,-3.81948 -14.70349,-2.0284 -4.03156,1.35476 -7.48592,4.42749 -8.93686,7.94955 -0.5804,1.40887 -0.57265,2.14768 0.0357,3.40881 0.27212,0.56408 0.47021,1.05016 0.4402,1.08018 -0.03,0.03 -3.53432,0.105 -7.78735,0.16665 -4.253029,0.0617 -8.804343,0.15468 -10.114031,0.20674 l -2.38125,0.0947 z M 88.39276,110.75468 c 1.42799,-4.20146 2.09404,-6.79499 2.23305,-8.69526 0.13197,-1.80399 -0.0599,-2.10317 -1.34904,-2.10317 -0.62814,0 -0.76713,0.0854 -0.98168,0.6034 -0.16291,0.39329 -0.20663,1.01778 -0.12555,1.79345 0.1096,1.04861 0.0657,1.28308 -0.36962,1.97262 -0.2717,0.4304 -0.72774,1.47626 -1.01341,2.32412 -0.47727,1.41654 -0.51063,1.72664 -0.41136,3.8236 0.11474,2.42344 0.43263,3.95128 0.75505,3.62886 0.10396,-0.10396 0.67212,-1.61039 1.26256,-3.34762 z m 9.33146,0.79095 c 1.09113,-0.34772 2.23899,-0.54058 3.67109,-0.61679 2.86579,-0.15251 4.46839,0.0774 12.60491,1.8087 1.31196,0.27915 3.25321,0.59754 4.31388,0.70752 4.50685,0.46734 7.90291,-0.80486 10.1774,-3.81255 1.0043,-1.32804 2.58956,-4.41658 2.78571,-5.42735 l 0.11893,-0.6128 -1.39606,-0.23056 c -1.93275,-0.31918 -4.48332,-0.28818 -5.89159,0.0716 -0.65049,0.16619 -2.10161,0.6686 -3.22471,1.11646 -1.12311,0.44786 -2.06569,0.78069 -2.09464,0.73962 -0.0289,-0.0411 -0.52774,-0.68192 -1.10844,-1.42412 -0.58069,-0.74221 -1.47216,-2.04221 -1.98103,-2.88889 l -0.92521,-1.53941 -0.58762,0.25013 c -0.32322,0.13759 -1.2838,0.24074 -2.13487,0.22925 -0.85098,-0.0115 -1.64132,0.0732 -1.7563,0.18818 -0.24949,0.2495 0.0643,0.3597 1.567,0.55038 0.99054,0.12569 1.57888,0.47826 1.07715,0.64551 -0.12846,0.0428 -0.23357,0.2323 -0.23357,0.42107 0,0.18876 -0.25201,0.58465 -0.56001,0.87974 l -0.56001,0.53652 -0.27624,-0.51614 c -0.3414,-0.63793 -1.12484,-1.21234 -1.78046,-1.30543 -0.47925,-0.068 -0.49244,-0.0385 -0.4311,0.9662 0.0603,0.98709 0.0319,1.05582 -0.59531,1.44439 l -0.65859,0.40799 -0.66328,-0.74986 c -0.3648,-0.41242 -0.84268,-1.09894 -1.06195,-1.5256 l -0.39868,-0.77575 -4.93995,4.94294 c -2.71697,2.71861 -5.47712,5.54049 -6.13366,6.27084 l -1.1937,1.32791 1.3417,-0.7869 c 0.73794,-0.4328 2.05608,-1.01457 2.92921,-1.29282 z m 38.79669,-2.88135 c 2.22279,-2.78042 3.82267,-3.94881 5.39736,-3.94167 0.46819,0.002 1.74423,0.13323 2.83564,0.29136 1.0914,0.15813 2.67277,0.29034 3.51416,0.2938 1.78782,0.007 4.62261,-0.37557 4.38728,-0.59263 -0.61351,-0.56589 -9.35118,-3.17139 -10.63541,-3.17139 -0.56015,0 -0.75309,-0.0731 -0.68198,-0.25844 0.14359,-0.37419 -0.32413,-1.35559 -0.89828,-1.88484 l -0.4953,-0.45656 -0.22006,0.87391 c -0.35541,1.41148 -1.3734,2.68375 -3.75831,4.69709 -2.53207,2.13759 -3.80763,3.61245 -3.81078,4.40623 -0.003,0.81241 0.82096,1.35386 2.0608,1.35386 h 1.0172 z m -37.90372,-5.54687 c 0,-0.27328 -0.1381,-0.38304 -0.48192,-0.38304 -0.65105,0 -1.06479,0.45856 -1.21433,1.34584 -0.0684,0.40577 -0.16578,0.91635 -0.21643,1.13463 -0.0592,0.25512 0.26594,0.0198 0.91029,-0.65876 0.55131,-0.5806 1.00239,-1.228 1.00239,-1.43867 z m 58.66113,-0.42538 c 0.85528,-0.6562 1.67609,-1.63376 2.50723,-2.98605 0.40927,-0.6659 0.74303,-1.26152 0.74168,-1.32359 -0.001,-0.0621 -0.31389,-0.3146 -0.69453,-0.56117 -0.38064,-0.24657 -0.69208,-0.5413 -0.69208,-0.65496 0,-0.11366 -0.28516,-0.92828 -0.63369,-1.81028 -0.56169,-1.42141 -0.71388,-1.63548 -1.33945,-1.88401 -0.38817,-0.15421 -0.90829,-0.38163 -1.15583,-0.50538 -0.39372,-0.19682 -0.53876,-0.13981 -1.15841,0.45538 -1.08436,1.04156 -1.54769,2.07265 -1.55409,3.4585 -0.008,1.74251 0.84302,3.46558 2.96119,5.99518 0.27847,0.33257 0.36571,0.31683 1.01798,-0.18362 z m -54.55951,-0.99945 c 0.55675,-0.57299 1.11495,-1.24272 1.24043,-1.48828 0.21048,-0.41189 0.18439,-0.44649 -0.33672,-0.44649 -0.62622,0 -1.28671,0.52229 -1.70115,1.34521 -0.36343,0.72164 -0.57212,1.63135 -0.37423,1.63135 0.0877,0 0.61491,-0.4688 1.17167,-1.04179 z M 31.545314,94.95807 c 0.688501,-0.28979 0.676376,-0.29351 -1.396464,-0.42873 -1.150047,-0.075 -2.623446,-0.22377 -3.274219,-0.33055 -1.024917,-0.16818 -1.21651,-0.14922 -1.432014,0.14169 -0.534085,0.72097 0.65925,1.05996 3.42379,0.97261 1.161379,-0.0367 2.272424,-0.18394 2.678907,-0.35502 z m 32.762918,-2.83532 c -0.25367,-2.1509 -0.209416,-2.30411 1.227532,-4.24972 l 0.790214,-1.06995 -0.87041,0.58666 c -4.590141,3.09375 -8.354794,3.47942 -11.26957,1.15453 -0.480787,-0.38349 -0.910178,-0.66123 -0.954203,-0.61721 -0.205327,0.20533 0.569297,1.51964 1.185355,2.01121 0.378301,0.30185 1.660003,0.93614 2.848226,1.40953 1.188223,0.47338 2.383648,0.98807 2.6565,1.14375 0.272851,0.15568 0.942578,0.34613 1.488281,0.42321 1.103191,0.15584 2.549772,0.71888 2.772387,1.07908 0.305785,0.49477 0.341683,-0.0396 0.125688,-1.87109 z m 39.524628,-2.50175 2.72183,-2.59618 -3.1e-4,-1.32296 c -5e-4,-2.12408 -0.95699,-3.45911 -2.24644,-3.13548 -1.28086,0.32148 -2.86106,3.85511 -3.11776,6.9719 -0.0899,1.09141 -0.224,2.14065 -0.29803,2.33164 -0.27626,0.71271 0.28881,0.28056 2.94071,-2.24892 z M 89.3723,84.98116 c 0.60992,-1.14216 1.10895,-2.16907 1.10895,-2.28203 0,-0.3744 -0.56627,-0.2126 -0.69695,0.19913 -0.0706,0.22249 -0.46569,0.62773 -0.87794,0.90055 -0.76291,0.50486 -1.20323,1.18917 -1.20323,1.86994 0,0.33913 0.38579,1.38906 0.5104,1.38906 0.0274,0 0.54885,-0.93449 1.15877,-2.07665 z m 78.41748,-4.24563 c -0.058,-0.0939 -0.50982,-0.22614 -1.00398,-0.29387 -0.49415,-0.0677 -1.56815,-0.38319 -2.38666,-0.70102 -0.81851,-0.31783 -1.4882,-0.54428 -1.4882,-0.50322 0,0.15833 2.12728,1.14778 2.97656,1.38447 1.05744,0.29471 2.05087,0.35405 1.90228,0.11364 z m 2.66615,-2.54704 c 0.32502,-0.5125 0.59094,-1.0022 0.59094,-1.08822 0,-0.17837 -1.53474,0.58352 -1.69378,0.84084 -0.14888,0.2409 0.11419,1.1792 0.3306,1.1792 0.0997,0 0.44722,-0.41932 0.77224,-0.93182 z M 19.430999,53.97072 c 1.963751,-2.26561 3.416799,-6.44342 2.479423,-7.12884 -0.633318,-0.4631 -1.21821,-0.32882 -1.448786,0.33261 -0.285918,0.82019 -0.712198,0.92384 -1.741907,0.42357 -0.482471,-0.2344 -1.008519,-0.42618 -1.168996,-0.42618 -0.358293,0 -1.882376,1.34926 -1.8753,1.6602 0.0028,0.12372 0.364021,0.3905 0.802679,0.59283 0.438657,0.20233 0.941542,0.58762 1.117522,0.8562 0.463155,0.70686 0.37507,2.0553 -0.219029,3.35299 -0.375975,0.82124 -0.434486,1.08971 -0.21951,1.00722 0.171742,-0.0659 0.379969,0.0498 0.502899,0.27953 0.276542,0.51672 0.693463,0.29305 1.771005,-0.95013 z M 147.47265,41.99277 c 1.80179,-0.37381 2.57791,-1.20281 1.40233,-1.49786 -0.59789,-0.15006 -3.71716,0.24315 -4.20814,0.53047 -0.22883,0.13391 -0.23943,0.18288 -0.0405,0.18734 0.15991,0.004 0.2217,0.13001 0.15213,0.3113 -0.23452,0.61115 0.9851,0.82334 2.69421,0.46875 z M 129.81914,19.362219 c 0.42016,-0.221075 0.59669,-0.855486 0.51225,-1.840982 l -0.0634,-0.740151 -0.81834,0.560629 c -0.45008,0.308346 -1.29829,0.996084 -1.88492,1.528306 l -1.06659,0.967677 1.48805,-0.146997 c 0.81843,-0.08085 1.64326,-0.228665 1.83297,-0.328482 z m -9.6589,-1.830099 c 1.02003,-2.153309 1.11528,-2.652057 0.4339,-2.272127 -0.24557,0.136925 -0.87021,0.221187 -1.3881,0.187249 -1.16979,-0.07666 -2.53166,0.535516 -3.23097,1.45235 -0.58263,0.763874 -0.60449,0.902187 -0.14343,0.907643 0.191,0.0023 0.97234,0.357599 1.73633,0.789641 0.76398,0.432042 1.4617,0.78738 1.55048,0.789641 0.0888,0.0023 0.55758,-0.832219 1.04179,-1.854397 z m -11.77001,-3.238815 c 0.80062,-0.345109 0.86009,-0.466817 0.52973,-1.084086 -0.49943,-0.933203 -2.50104,-1.202252 -4.94496,-0.664687 -1.66632,0.366525 -1.5875,0.376151 -1.5875,-0.193863 0,-0.715505 -0.76955,-1.16502 -1.61805,-0.94515 -1.74687,0.452659 -0.19679,2.047212 2.81715,2.897978 2.04145,0.576256 3.45008,0.573267 4.80363,-0.01019 z"
       id="path1" /></g></svg>
